# xmcd CD database file
#
# Track frame offsets:
#	182
#	18257
#	42692
#	68495
#
# Disc length: 1259 seconds
#
# Revision: 1
# Processed by: cddbd v1.5.2PL0 Copyright (c) Steve Scherf et al.
# Submitted via: jetAudio 7
#
DISCID=2c04e904
DTITLE=Luxoria - Get High CDM
DYEAR=1995
DGENRE=Eurodance
TTITLE0=Get High (Radio Version)
TTITLE1=Get High (Club Mix)
TTITLE2=Get High (Crossing 152nd Street Mix)
TTITLE3=Luxoria
EXTD=
EXTT0=
EXTT1=
EXTT2=
EXTT3=
PLAYORDER=
